#!OML:ASF E:\VariousWalksJay\Project 1\Capture day 1\Session 1\Actor2.ASF
:FULLY-SPECIFIED
:DEGREES
614
root 5.25076 17.2346 7.73036 2.50482 -9.25337 -11.6211
lowerback -9.20363 5.18226 7.16219
upperback -0.593389 6.23432 -1.65166
thorax 5.4848 3.27318 -4.84187
lowerneck -6.89946 -6.59419 -7.74697
upperneck 10.3141 -8.89958 7.42694
head 4.90461 -4.26758 2.95331
rclavicle 7.83709e-014 1.59028e-015
rhumerus 11.2024 25.7804 -72.6171
rradius 108.991
rwrist -10.151
rhand -20.4003 13.9656
rfingers 7.12502
rthumb 5.95337 -15.9308
lclavicle 7.83709e-014 1.59028e-015
lhumerus -90.5894 -49.8236 106.078
lradius 58.1169
lwrist 17.5273
lhand -2.67033 -17.9701
lfingers 7.12502
lthumb 23.0303 10.6739
rfemur 7.78703 -13.3642 36.3829
rtibia 24.0557
rfoot -16.2678 -6.17808
rtoes -14.4517
lfemur -34.4989 -2.71712 -8.90525
ltibia 19.8231
lfoot -25.1628 7.21022
ltoes -20.7826
615
root 5.21492 17.1725 7.8623 2.73105 -9.32731 -11.7215
lowerback -9.39385 5.25855 7.0658
upperback -0.640732 6.3333 -1.67031
thorax 5.54691 3.31955 -4.77766
lowerneck -6.8163 -6.69618 -7.8893
upperneck 10.2437 -9.0377 7.53994
head 4.8916 -4.33689 3.00268
rclavicle 2.19657e-014 3.18055e-015
rhumerus 11.4537 25.6591 -72.6761
rradius 109.486
rwrist -9.98826
rhand -20.4558 13.9959
rfingers 7.12502
rthumb 5.89977 -15.902
lclavicle 2.19657e-014 3.18055e-015
lhumerus -91.3935 -49.738 106.343
lradius 58.4006
lwrist 17.3911
lhand -2.65927 -18.0621
lfingers 7.12502
lthumb 23.0409 10.5805
rfemur 8.17311 -13.5669 36.3509
rtibia 24.067
rfoot -16.8502 -5.8158
rtoes -14.8928
lfemur -34.118 -3.03413 -8.50881
ltibia 20.2772
lfoot -25.0797 7.26472
ltoes -20.4678
616
root 5.17895 17.113 7.99688 2.98108 -9.43341 -11.8232
lowerback -9.60503 5.33781 6.96287
upperback -0.702775 6.43606 -1.6915
thorax 5.60489 3.36696 -4.71041
lowerneck -6.77516 -6.7953 -8.01411
upperneck 10.2148 -9.17343 7.65069
head 4.89767 -4.40327 3.04698
rclavicle 1.6847e-014 -1.11319e-014
rhumerus 11.6693 25.5815 -72.7435
rradius 109.892
rwrist -9.82667
rhand -20.5152 14.0288
rfingers 7.12502
rthumb 5.84247 -15.8707
lclavicle 1.6847e-014 -1.11319e-014
lhumerus -92.2118 -49.6562 106.649
lradius 58.6873
lwrist 17.2984
lhand -2.68815 -18.1539
lfingers 7.12502
lthumb 23.0132 10.4922
rfemur 8.54441 -13.7495 36.3289
rtibia 24.0677
rfoot -17.3661 -5.53791
rtoes -15.2685
lfemur -33.7256 -3.26834 -8.14347
ltibia 20.761
lfoot -25.055 7.48171
ltoes -20.1304
617
root 5.14267 17.0583 8.13357 3.2501 -9.5719 -11.9172
lowerback -9.82442 5.41887 6.84512
upperback -0.782383 6.54324 -1.71919
thorax 5.64808 3.41527 -4.64078
lowerneck -6.75972 -6.89514 -8.12873
upperneck 10.2101 -9.31245 7.77177
head 4.91609 -4.46956 3.09142
rclavicle 2.92213e-014 1.59028e-014
rhumerus 11.8478 25.5387 -72.8183
rradius 110.225
rwrist -9.66631
rhand -20.585 14.0703
rfingers 7.12502
rthumb 5.77504 -15.831
lclavicle 2.92213e-014 1.59028e-014
lhumerus -93.0729 -49.5828 107.017
lradius 58.9848
lwrist 17.2645
lhand -2.73897 -18.2363
lfingers 7.12502
lthumb 22.9645 10.4159
rfemur 8.90422 -13.885 36.3155
rtibia 24.0497
rfoot -17.8013 -5.3606
rtoes -15.611
lfemur -33.3391 -3.36037 -7.85129
ltibia 21.2545
lfoot -25.0027 7.93075
ltoes -19.9286
618
root 5.1057 17.0099 8.27152 3.52483 -9.73272 -11.9818
lowerback -10.0372 5.49695 6.68696
upperback -0.875409 6.6527 -1.75921
thorax 5.66998 3.46298 -4.5622
lowerneck -6.76224 -6.99292 -8.22612
upperneck 10.2127 -9.45053 7.89736
head 4.93944 -4.53402 3.13385
rclavicle -1.60519e-014 -1.43125e-014
rhumerus 11.9942 25.5177 -72.8944
rradius 110.499
rwrist -9.50068
rhand -20.6707 14.1316
rfingers 7.12502
rthumb 5.69231 -15.7719
lclavicle -1.60519e-014 -1.43125e-014
lhumerus -93.9658 -49.5324 107.439
lradius 59.2983
lwrist 17.2739
lhand -2.80903 -18.3303
lfingers 7.12502
lthumb 22.8972 10.3302
rfemur 9.26041 -13.9412 36.3026
rtibia 24.0012
rfoot -18.1386 -5.31315
rtoes -15.9567
lfemur -32.9873 -3.27649 -7.66965
ltibia 21.7431
lfoot -24.8723 8.52779
ltoes -19.7253
